<?xml version="1.0" encoding="utf-8"?>
<!-- Generator: Adobe Illustrator 25.0.0, SVG Export Plug-In . SVG Version: 6.00 Build 0)  -->
<svg version="1.0" xmlns="http://www.w3.org/2000/svg" xmlns:xlink="http://www.w3.org/1999/xlink" x="0px" y="0px"
	 viewBox="0 0 637.7 174.5" style="enable-background:new 0 0 637.7 174.5;" xml:space="preserve">
<style type="text/css">
	.st0{fill:#0090A1;}
	.st1{fill:#8EAFB5;}
	.st2{fill:#008E9E;}
	.st3{fill:#8CAFC3;}
</style>
<g id="Layer_1">
</g>
<g id="Layer_2">
</g>
<g id="Layer_3">
</g>
<g id="Layer_5">
</g>
<g id="Layer_6">
</g>
<g id="Layer_4">
	<g>
		<g>
			<g>
				<path class="st0" d="M254.8,29.3l-3.5,8.8h-0.7c0.1-0.4,0.2-1.1,0.2-2.1c0-0.8-0.3-1.3-0.9-1.5c-0.6-0.2-1.4-0.3-2.6-0.3h-19.1
					v62.7c0,1.4,0.1,2.6,0.2,3.6c0.1,1,0.4,1.8,0.7,2.3c0.4,0.6,0.9,1,1.6,1.2c0.7,0.2,1.8,0.3,3.2,0.3v0.7h-19.8v-0.7
					c1.7-0.2,2.9-0.4,3.6-0.7c0.7-0.3,1.3-0.9,1.6-1.7c0.3-0.8,0.4-2.2,0.4-4.1V34.2h-18.3c-1.8,0-3,0.1-3.6,0.3
					c-0.6,0.2-0.9,0.7-0.9,1.6c0,0.4,0.1,1,0.4,2h-0.7l-3.5-8.8h0.7c0.6,1.2,1.3,1.9,1.9,2.2c0.6,0.2,1.8,0.3,3.6,0.3h48.7
					c2,0,3.3-0.1,4.2-0.3c0.8-0.2,1.4-1,1.9-2.2H254.8z"/>
				<path class="st0" d="M308,71.3h-21.4L275.6,99c-0.3,0.8-0.5,1.3-0.5,1.3c-0.4,0.9-0.6,1.6-0.6,2.3c0,1.1,0.8,1.6,2.4,1.6v0.7
					H266v-0.7c2,0,3.4-0.6,4.3-1.6c0.9-1.1,1.8-2.7,2.7-5l26.5-67h1.2l26.1,64.7c0,0.3,0.1,0.5,0.3,0.8l0.4,1.1
					c0.8,2.1,1.8,3.7,2.9,5c1.1,1.3,2.6,1.9,4.6,1.9v0.7h-17.1v-0.7c1,0,1.6-0.2,1.9-0.6c0.3-0.4,0.4-0.8,0.4-1.2
					c0-0.9-0.4-2.3-1.1-4c-0.1-0.1-0.1-0.3-0.2-0.6c-0.1-0.3-0.2-0.5-0.2-0.5L308,71.3z M287.3,69.3h19.8l-9.9-25L287.3,69.3z"/>
				<path class="st0" d="M394.9,32.7l3.5,9.1l-0.6,0.1c0-0.1-0.3-0.3-0.7-0.8c-1.1-1.3-2.4-2.6-3.9-3.8c-1.4-1.2-3.2-2.3-5.3-3.1
					c-2.1-0.8-4.5-1.2-7.2-1.2c-3.4,0-6.4,0.7-8.8,2.1s-4.3,3.2-5.6,5.5c-1.2,2.3-1.9,4.6-1.9,7.1c0,2.3,0.5,4.2,1.4,5.8
					c0.9,1.6,2.1,2.9,3.6,3.9c1.5,1,3.4,2,5.8,2.8c2.4,0.9,4.3,1.5,5.6,2c3.5,1.1,6.8,2.4,9.9,3.8c3,1.4,5.8,3.7,8.2,6.7
					c2.4,3,3.6,6.8,3.6,11.5c0,4.3-1.1,8.1-3.2,11.4c-2.2,3.3-4.8,5.7-8.1,7.3c-1.3,0.6-3.5,1.1-6.6,1.5c-3.1,0.4-5.3,0.6-6.5,0.6
					h-19.5V83.7h0.7c0.1,3.1,0.4,5.8,0.9,8c0.5,2.2,1.6,4.1,3.1,5.8c1.5,1.7,3.6,3,6.2,3.9c2.6,0.9,6,1.3,10,1.3
					c3.8,0,7-0.5,9.6-1.6c2.6-1.1,4.5-2.5,5.9-4.1c1.4-1.7,2.3-3.3,2.8-4.9c0.5-1.6,0.7-3.1,0.7-4.4c0-3-0.8-5.5-2.5-7.5
					c-1.7-2-3.7-3.6-6-4.8c-2.4-1.2-5.6-2.5-9.7-3.9c-4.2-1.4-7.1-2.6-8.8-3.4c-1.7-0.9-3.2-1.9-4.6-3.2c-1.8-1.8-3.3-3.9-4.4-6.3
					c-1.1-2.4-1.6-5-1.6-7.8c0-3.6,0.8-6.9,2.5-10c1.7-3,4.1-5.5,7.3-7.3c3.2-1.8,7-2.8,11.3-2.8c3.5,0,7.7,0.6,12.3,1.8
					c0.1,0,0.2,0,0.4,0.1C394.8,32.7,394.9,32.7,394.9,32.7z"/>
				<path class="st0" d="M426.2,105v-0.7c2.4,0,3.9-0.4,4.5-1.3c0.6-0.9,1-2.3,1-4.4V38.6c0-2.6-0.4-4.3-1.1-5
					c-0.7-0.7-2.2-1.1-4.4-1.1v-0.7h19.6v0.7c-1.8,0-3,0.2-3.9,0.7c-0.8,0.5-1.3,1.2-1.5,2.1c-0.2,0.9-0.2,2.1-0.2,3.8v51.4
					c0,2.3,0.3,4.2,0.8,5.7c0.5,1.5,1.3,2.7,2.5,3.7c1.1,0.9,2.6,1.6,4.4,2c1.8,0.4,4,0.6,6.4,0.6h8.9c3.2,0,5.8-0.6,7.6-1.7
					c1.8-1.1,3.1-2.8,3.9-4.9c0.7-2.2,1.2-5,1.4-8.5h0.7V105H426.2z"/>
				<path class="st0" d="M523.5,31.8v0.7c-1.1-0.1-2.3,0.1-3.6,0.6c-1.3,0.5-1.9,1.6-1.9,3.3c-0.1,0.4-0.1,1.6-0.1,3.7v56.2
					c0,2.3,0.1,4,0.2,5c0.2,1,0.7,1.8,1.5,2.3c0.8,0.5,2.1,0.7,3.9,0.7v0.7H504v-0.7c1.8-0.1,3-0.3,3.8-0.7c0.7-0.4,1.2-1.1,1.4-2.1
					c0.2-1,0.3-2.7,0.3-5.1V40.8c0-2.2-0.1-3.9-0.2-5c-0.2-1.1-0.6-1.9-1.4-2.5c-0.8-0.6-2.1-0.8-3.8-0.7v-0.7H523.5z"/>
				<path class="st0" d="M618.2,31.8h11.5v0.7c-3.9,0.2-5.8,2.2-5.8,6.1c0,0.5,0.1,1.6,0.3,3.4l7.7,55.5c0.3,1.9,0.6,3.3,1,4.2
					c0.4,0.9,0.9,1.6,1.5,1.9c0.6,0.3,1.5,0.5,2.7,0.6v0.7h-16.5v-0.7c2.2,0.1,3.2-1,3.2-3.2c0-0.5-0.1-1.5-0.3-2.9l-7.5-53.8h-0.2
					l-26,60.6h-0.5l-26.2-60.5H563l-7.4,54.1c-0.1,0.6-0.2,1.5-0.2,2.8c0,0.8,0.2,1.5,0.6,2.1c0.4,0.5,1.3,0.8,2.7,0.8v0.7h-11.2
					v-0.7c1.4-0.1,2.3-0.2,2.8-0.4c0.5-0.2,0.9-0.7,1.3-1.5c0.4-0.8,0.7-2.1,0.9-3.9l8.3-59.1l-1.1-2.4c-1.4-3-3.7-4.5-6.9-4.5v-0.7
					h13.8l25.7,59.9L618.2,31.8z"/>
			</g>
			<g>
				<path class="st1" d="M210.6,144.6v-0.6c0.8,0,1.3-0.2,1.3-0.6v-15.6c0-0.4-0.4-0.6-1.3-0.6v-0.6h12.1c2.2,0,3.9,0.4,5.2,1.2
					c1.3,0.8,1.9,2.2,1.9,4.1c0,1.9-0.6,3.3-1.9,4.1c-1.3,0.8-3,1.2-5.2,1.2h-6.9v6.1c0,0.4,0.4,0.6,1.1,0.6v0.6H210.6z M223,134.1
					c0.8,0,1.4-0.1,1.9-0.4c0.5-0.3,0.8-0.9,0.8-1.7c0-0.9-0.3-1.5-0.8-1.7c-0.5-0.3-1.2-0.4-1.9-0.4h-7.3v4.4H223z"/>
				<path class="st1" d="M245.4,138.9l0.3,0.2c0,0.2,0,0.4,0.1,0.5c0.2,0.3,0.5,0.5,0.9,0.8c0.5,0.3,1,0.5,1.6,0.7
					c0.6,0.2,1.2,0.4,1.9,0.5c0.7,0.1,1.3,0.2,1.8,0.2c0.4,0,0.9,0,1.5-0.1c0.6-0.1,1.2-0.2,1.8-0.4c0.6-0.2,1.1-0.4,1.5-0.8
					c0.4-0.3,0.7-0.7,0.7-1.3c0-0.5-0.2-0.9-0.6-1.2c-0.4-0.3-0.9-0.4-1.6-0.5c-0.7-0.1-1.4-0.2-2.2-0.2c-0.8,0-1.7-0.1-2.6-0.2
					c-0.9-0.1-1.7-0.2-2.6-0.3c-0.8-0.2-1.6-0.4-2.2-0.8s-1.2-0.9-1.6-1.5c-0.4-0.7-0.6-1.5-0.6-2.6c0-0.7,0.2-1.4,0.5-2.1
					c0.3-0.7,0.8-1.3,1.5-1.8c0.7-0.5,1.6-1,2.6-1.3c1.1-0.3,2.3-0.5,3.7-0.5c1.2,0,2.3,0.1,3.2,0.3c0.9,0.2,1.7,0.4,2.3,0.6
					c0.7,0.2,1.2,0.4,1.6,0.6c0.4,0.2,0.8,0.3,1.1,0.3c0.3,0,0.5-0.1,0.7-0.2l0.4,0.3l-2.4,4.3l-0.3-0.1c0-0.3-0.1-0.6-0.3-0.8
					c-0.2-0.3-0.5-0.5-0.9-0.8c-0.4-0.3-0.9-0.5-1.5-0.7c-0.6-0.2-1.2-0.4-1.9-0.5c-0.7-0.1-1.3-0.2-2-0.2c-0.5,0-1,0-1.6,0.1
					c-0.5,0.1-1,0.2-1.5,0.4c-0.4,0.2-0.8,0.4-1.1,0.6c-0.3,0.3-0.4,0.6-0.4,1c0,0.5,0.2,1,0.6,1.2c0.4,0.3,0.9,0.5,1.6,0.6
					c0.7,0.1,1.4,0.2,2.2,0.3c0.8,0,1.7,0.1,2.6,0.2c0.9,0.1,1.7,0.2,2.6,0.4c0.8,0.2,1.6,0.4,2.2,0.8s1.2,0.9,1.6,1.5
					c0.4,0.6,0.6,1.5,0.6,2.5c0,1.2-0.3,2.2-0.9,2.9c-0.6,0.8-1.4,1.3-2.3,1.8c-0.9,0.4-1.9,0.7-3,0.9c-1.1,0.1-2.1,0.2-3,0.2
					c-1.3,0-2.4-0.1-3.3-0.2c-0.9-0.1-1.6-0.3-2.2-0.5c-0.6-0.2-1-0.4-1.4-0.6c-0.3-0.2-0.6-0.3-0.9-0.3c-0.2,0-0.3,0.1-0.4,0.3
					l-0.5-0.3L245.4,138.9z"/>
				<path class="st1" d="M281.8,126.5v0.6c-0.2,0-0.4,0-0.6,0.1c-0.2,0.1-0.3,0.2-0.3,0.4c0,0.1,0.2,0.5,0.5,1
					c0.3,0.5,0.7,1.1,1.2,1.7c0.4,0.7,0.9,1.3,1.4,2c0.5,0.7,0.9,1.3,1.2,1.7l4-5.5c0.2-0.3,0.3-0.5,0.4-0.7
					c0.1-0.2,0.2-0.3,0.2-0.4c0-0.2-0.1-0.3-0.3-0.3c-0.2,0-0.4-0.1-0.6-0.1v-0.6h6v0.6c-0.2,0-0.4,0-0.5,0.1
					c-0.2,0-0.3,0.1-0.5,0.2c-0.2,0.1-0.4,0.3-0.5,0.5c-0.2,0.2-0.4,0.6-0.7,1l-5.8,8.3v6.1c0,0.4,0.3,0.6,0.8,0.6v0.6h-5.4v-0.6
					c0.2,0,0.4-0.1,0.5-0.2s0.2-0.3,0.2-0.5v-6.1l-6.6-9.3c-0.2-0.2-0.4-0.4-0.7-0.6c-0.3-0.2-0.6-0.2-0.8-0.2v-0.6H281.8z"/>
				<path class="st1" d="M327.5,142.1c-0.1,0-0.1,0-0.2,0c-0.1,0-0.1,0-0.2,0c-0.1,0-0.5,0.1-1,0.4c-0.5,0.3-1.2,0.6-2,0.9
					c-0.8,0.3-1.7,0.6-2.7,0.9c-1,0.3-2.1,0.4-3.2,0.4c-1.4,0-2.8-0.2-4.1-0.5c-1.3-0.4-2.5-0.9-3.5-1.7c-1-0.8-1.8-1.7-2.4-2.9
					c-0.6-1.1-0.9-2.5-0.9-4c0-1.5,0.3-2.8,0.9-4c0.6-1.2,1.4-2.1,2.4-2.9c1-0.8,2.2-1.4,3.5-1.7c1.3-0.4,2.7-0.6,4.1-0.6
					c1.2,0,2.2,0.1,3.2,0.3c0.9,0.2,1.8,0.4,2.5,0.6c0.7,0.2,1.3,0.4,1.7,0.6c0.4,0.2,0.7,0.3,0.8,0.3c0.1,0,0.2-0.1,0.3-0.2
					c0.1-0.1,0.1-0.2,0.2-0.3l0.5,0.4l-2.7,4.1l-0.3-0.2c0-0.1,0-0.1,0-0.2c0-0.1,0-0.1-0.1-0.2c0-0.3-0.3-0.5-0.7-0.8
					c-0.4-0.3-0.9-0.5-1.5-0.7c-0.6-0.2-1.2-0.4-1.9-0.5c-0.7-0.1-1.3-0.2-1.9-0.2c-1,0-1.9,0.1-2.8,0.4c-0.9,0.3-1.6,0.7-2.3,1.2
					c-0.7,0.5-1.2,1.2-1.6,1.9c-0.4,0.8-0.6,1.6-0.6,2.6c0,1,0.2,1.9,0.6,2.6c0.4,0.8,0.9,1.4,1.6,1.9c0.7,0.5,1.4,0.9,2.3,1.2
					c0.9,0.3,1.8,0.4,2.8,0.4c0.7,0,1.5-0.1,2.3-0.3c0.8-0.2,1.5-0.4,2.2-0.7c0.7-0.3,1.2-0.6,1.7-0.9c0.4-0.3,0.7-0.6,0.7-0.9
					c0-0.2,0-0.3-0.1-0.4l0.5-0.3l2.3,3.6L327.5,142.1z"/>
				<path class="st1" d="M359.4,127.8c0-0.4-0.3-0.6-0.8-0.6v-0.6h5.3v0.6c-0.2,0-0.3,0.1-0.4,0.2c-0.1,0.1-0.2,0.3-0.2,0.5v15.6
					c0,0.2,0.1,0.4,0.2,0.5c0.1,0.1,0.3,0.2,0.4,0.2v0.6h-5.3v-0.6c0.5,0,0.8-0.2,0.8-0.6v-6.4h-11v6.4c0,0.2,0.1,0.4,0.2,0.5
					c0.1,0.1,0.3,0.2,0.4,0.2v0.6h-5.2v-0.6c0.4,0,0.7-0.2,0.7-0.6v-15.6c0-0.4-0.2-0.6-0.7-0.6v-0.6h5.2v0.6
					c-0.2,0-0.3,0.1-0.4,0.2c-0.1,0.1-0.2,0.3-0.2,0.5v5.8h11V127.8z"/>
				<path class="st1" d="M390.8,126.3c1.3,0,2.5,0.2,3.8,0.6c1.3,0.4,2.5,0.9,3.6,1.7c1.1,0.8,2,1.7,2.6,2.9c0.7,1.2,1,2.5,1,4.1
					s-0.3,2.9-1,4.1c-0.7,1.2-1.6,2.1-2.6,2.9c-1.1,0.8-2.3,1.3-3.6,1.6c-1.3,0.3-2.6,0.5-3.8,0.5c-1.3,0-2.5-0.2-3.8-0.5
					c-1.3-0.3-2.5-0.9-3.6-1.6c-1.1-0.8-2-1.7-2.6-2.9c-0.7-1.2-1-2.5-1-4.1s0.3-2.9,1-4.1c0.7-1.2,1.6-2.1,2.6-2.9
					c1.1-0.8,2.3-1.3,3.6-1.7C388.3,126.5,389.6,126.3,390.8,126.3z M390.8,129.5c-0.9,0-1.7,0.1-2.6,0.4c-0.9,0.3-1.7,0.7-2.3,1.2
					c-0.7,0.5-1.3,1.1-1.7,1.9c-0.4,0.8-0.7,1.6-0.7,2.6s0.2,1.8,0.7,2.6c0.4,0.8,1,1.4,1.7,1.9c0.7,0.5,1.5,0.9,2.3,1.2
					c0.9,0.3,1.7,0.4,2.6,0.4c0.9,0,1.7-0.1,2.6-0.4c0.9-0.3,1.7-0.7,2.3-1.2c0.7-0.5,1.3-1.1,1.7-1.9c0.4-0.8,0.7-1.6,0.7-2.6
					s-0.2-1.8-0.7-2.6c-0.4-0.8-1-1.4-1.7-1.9c-0.7-0.5-1.5-0.9-2.3-1.2C392.6,129.6,391.7,129.5,390.8,129.5z"/>
				<path class="st1" d="M426.9,143.3c0,0.4,0.3,0.6,0.8,0.6v0.6h-5.3v-0.6c0.2,0,0.3-0.1,0.4-0.2c0.1-0.1,0.2-0.3,0.2-0.5v-13.6
					h-5.7c-0.2,0-0.4,0.1-0.6,0.2c-0.2,0.1-0.3,0.3-0.3,0.7h-0.6v-4.8h0.6c0,0.3,0.1,0.5,0.3,0.7c0.2,0.1,0.4,0.2,0.6,0.2h15.2
					c0.2,0,0.4-0.1,0.6-0.2c0.2-0.1,0.3-0.3,0.3-0.7h0.6v4.8h-0.6c0-0.3-0.1-0.5-0.3-0.7c-0.2-0.1-0.4-0.2-0.6-0.2h-5.7V143.3z"/>
				<path class="st1" d="M464.6,127.8c0-0.4-0.3-0.6-0.8-0.6v-0.6h5.3v0.6c-0.2,0-0.3,0.1-0.4,0.2c-0.1,0.1-0.2,0.3-0.2,0.5v15.6
					c0,0.2,0.1,0.4,0.2,0.5c0.1,0.1,0.3,0.2,0.4,0.2v0.6h-5.3v-0.6c0.5,0,0.8-0.2,0.8-0.6v-6.4h-11v6.4c0,0.2,0.1,0.4,0.2,0.5
					c0.1,0.1,0.3,0.2,0.4,0.2v0.6H449v-0.6c0.4,0,0.7-0.2,0.7-0.6v-15.6c0-0.4-0.2-0.6-0.7-0.6v-0.6h5.2v0.6c-0.2,0-0.3,0.1-0.4,0.2
					c-0.1,0.1-0.2,0.3-0.2,0.5v5.8h11V127.8z"/>
				<path class="st1" d="M502.6,130.2c0-0.3-0.1-0.4-0.3-0.6c-0.2-0.1-0.5-0.2-1-0.2h-11.1v4.3h6.7c0.5,0,0.8-0.1,1.1-0.2
					c0.3-0.1,0.4-0.5,0.4-1h0.6v5.3h-0.6c0-0.5-0.1-0.9-0.4-1c-0.3-0.1-0.6-0.2-1.1-0.2h-6.7v4.7h11.5c0.3,0,0.6-0.1,0.8-0.2
					c0.2-0.2,0.3-0.4,0.3-0.7h0.6v4.7h-0.6c0-0.3-0.1-0.5-0.3-0.6c-0.2,0-0.5-0.1-0.8-0.1h-16v-0.6c0.2,0,0.3-0.1,0.4-0.2
					c0.1-0.1,0.2-0.3,0.2-0.5v-15.6c0-0.2-0.1-0.4-0.2-0.5c-0.1-0.1-0.3-0.2-0.4-0.2v-0.6h15.6c0.5,0,0.8-0.1,1-0.2
					c0.2-0.1,0.3-0.3,0.3-0.6h0.6v4.5H502.6z"/>
				<path class="st1" d="M530.3,126.5c1.1,0,2.1,0.1,3,0.3c0.9,0.2,1.7,0.5,2.3,0.9c0.6,0.4,1.1,1,1.5,1.6c0.3,0.7,0.5,1.5,0.5,2.5
					c0,1.5-0.4,2.7-1.3,3.5c-0.9,0.8-2.1,1.3-3.6,1.6l4.6,6.5c0.2,0.2,0.3,0.4,0.6,0.4c0.2,0,0.4,0.1,0.6,0.1v0.6h-6.4v-0.6
					c0.2,0,0.4,0,0.5-0.1c0.1-0.1,0.2-0.2,0.2-0.3c0-0.1,0-0.2-0.1-0.4c-0.1-0.1-0.2-0.3-0.4-0.6l-3.8-5.3h-4.9v6.1
					c0,0.2,0.1,0.4,0.2,0.5c0.1,0.1,0.4,0.2,0.8,0.2v0.6h-5.9v-0.6c0.7,0,1-0.2,1-0.6v-15.6c0-0.4-0.3-0.6-1-0.6v-0.6H530.3z
					 M529.4,134.5c0.8,0,1.5-0.1,2.1-0.2c0.5-0.1,1-0.3,1.3-0.5c0.3-0.2,0.5-0.5,0.7-0.8s0.2-0.6,0.2-1c0-0.4-0.1-0.7-0.2-1
					s-0.4-0.6-0.7-0.8c-0.3-0.2-0.8-0.4-1.3-0.5c-0.5-0.1-1.2-0.2-2.1-0.2h-5.9v5.1H529.4z"/>
				<path class="st1" d="M551.6,143.9c0.3,0,0.5-0.2,0.7-0.4c0.2-0.3,0.3-0.5,0.5-0.9l6.3-13.3c0.2-0.3,0.3-0.6,0.4-0.8
					c0.1-0.3,0.2-0.5,0.2-0.7c0-0.2-0.1-0.4-0.2-0.5c-0.2-0.1-0.3-0.2-0.5-0.2v-0.6h5.8v0.6c-0.2,0-0.3,0.1-0.5,0.2
					c-0.2,0.1-0.2,0.2-0.2,0.5c0,0.2,0,0.4,0.1,0.5c0.1,0.2,0.2,0.4,0.4,0.7l7.1,14c0.1,0.3,0.3,0.4,0.5,0.5
					c0.2,0.1,0.4,0.2,0.7,0.3v0.6h-6v-0.6c0.1,0,0.2,0,0.3-0.1s0.2-0.2,0.2-0.3c0-0.2-0.1-0.5-0.3-0.9l-1.3-2.5h-8.4l-1.2,2.4
					c-0.2,0.5-0.3,0.8-0.3,1c0,0.3,0.2,0.4,0.7,0.4v0.6h-4.9V143.9z M564.5,137.6l-2.9-6.4l-3.2,6.4H564.5z"/>
				<path class="st1" d="M586.6,144.6v-0.6c0.8,0,1.3-0.2,1.3-0.6v-15.6c0-0.4-0.4-0.6-1.3-0.6v-0.6h12.1c2.2,0,3.9,0.4,5.2,1.2
					c1.3,0.8,1.9,2.2,1.9,4.1c0,1.9-0.6,3.3-1.9,4.1c-1.3,0.8-3,1.2-5.2,1.2h-6.9v6.1c0,0.4,0.4,0.6,1.1,0.6v0.6H586.6z
					 M599.1,134.1c0.8,0,1.4-0.1,1.9-0.4c0.5-0.3,0.8-0.9,0.8-1.7c0-0.9-0.3-1.5-0.8-1.7c-0.5-0.3-1.2-0.4-1.9-0.4h-7.3v4.4H599.1z"
					/>
				<path class="st1" d="M624.7,126.5v0.6c-0.2,0-0.4,0-0.6,0.1c-0.2,0.1-0.3,0.2-0.3,0.4c0,0.1,0.2,0.5,0.5,1
					c0.3,0.5,0.7,1.1,1.2,1.7c0.4,0.7,0.9,1.3,1.4,2c0.5,0.7,0.9,1.3,1.2,1.7l4-5.5c0.2-0.3,0.3-0.5,0.4-0.7
					c0.1-0.2,0.2-0.3,0.2-0.4c0-0.2-0.1-0.3-0.3-0.3c-0.2,0-0.4-0.1-0.6-0.1v-0.6h6v0.6c-0.2,0-0.4,0-0.5,0.1
					c-0.2,0-0.3,0.1-0.5,0.2c-0.2,0.1-0.4,0.3-0.5,0.5c-0.2,0.2-0.4,0.6-0.7,1l-5.8,8.3v6.1c0,0.4,0.3,0.6,0.8,0.6v0.6H625v-0.6
					c0.2,0,0.4-0.1,0.5-0.2c0.1-0.1,0.2-0.3,0.2-0.5v-6.1l-6.6-9.3c-0.2-0.2-0.4-0.4-0.7-0.6c-0.3-0.2-0.6-0.2-0.8-0.2v-0.6H624.7z"
					/>
			</g>
		</g>
		<g>
			<g>
				<polygon class="st2" points="98.5,87.2 111.6,80 127.2,87.2 111.6,94.5 				"/>
				<polygon class="st2" points="94.8,63.6 87.2,76.9 80.3,63.9 87.5,47.7 				"/>
				<polygon class="st2" points="63.9,80.3 76.9,87.2 63.9,94.1 48.2,87.2 				"/>
				<polygon class="st2" points="80.6,111.3 87.2,98.5 94.5,111.6 87.5,126.7 				"/>
			</g>
			<g>
				<polygon class="st3" points="99.9,57.9 114.2,52.3 119.6,37.8 111.2,29.3 99.4,29.4 93.2,43.4 				"/>
				<polygon class="st3" points="60.6,52.5 75.2,58.1 81.6,43.5 75.1,29.4 63.2,29.3 54.9,37.8 				"/>
				<polygon class="st3" points="114.4,122.6 99.6,117.2 93.2,131.1 99.4,145 111.2,145.1 119.6,136.6 				"/>
				<polygon class="st3" points="75.4,117 60.4,122.5 54.9,136.7 63.2,145.1 75.1,145 81.6,131 				"/>
				<polygon class="st3" points="122.5,60.4 117.2,74.8 131.5,81.4 145,75.1 145.1,63.2 136.7,54.9 				"/>
				<polygon class="st3" points="52.3,114.2 58.1,99.3 43.9,93 29.4,99.4 29.3,111.2 37.8,119.6 				"/>
				<polygon class="st3" points="145,99.3 131.5,93 117.2,99.6 122.6,114.4 136.6,119.6 145.1,111.2 				"/>
				<polygon class="st3" points="29.4,75.1 43.9,81.5 58.1,75.2 52.5,60.6 37.8,54.9 29.3,63.2 				"/>
			</g>
			<g>
				<polygon class="st2" points="95.3,79.6 99.5,65.3 115.7,59.3 109.7,75.5 				"/>
				<polygon class="st2" points="76,65.5 80.1,80.3 66,76 59.6,59.5 				"/>
				<polygon class="st2" points="66,99.2 80.1,94.9 75.7,109 59.8,115.2 				"/>
				<polygon class="st2" points="99.8,109.3 95.3,95.6 109.7,99.7 115.5,115.4 				"/>
			</g>
			<path class="st0" d="M148.9,25.5l-0.2,31.3l-10.3-10.1l-17,6.6l6.4-17.3l-10.1-10.3L148.9,25.5z M65.3,22.3l14.4,0.1l7.7,16.7
				l7.4-16.7l14.4-0.1L87.2,0L65.3,22.3z M25.8,56.9l10.3-10.1l17.4,6.7l-6.7-17.4l10.1-10.3l-31.3-0.2L25.8,56.9z M22.3,109.2
				l0.1-14.4l17.1-7.5l-17.1-7.5l-0.1-14.4L0,87.2L22.3,109.2z M56.9,148.7l-10.1-10.3l6.6-17l-17.3,6.4l-10.3-10.1l-0.2,31.3
				L56.9,148.7z M109.2,152.1L94.8,152l-7.4-16.7L79.7,152l-14.4,0.1l22,22.3L109.2,152.1z M117.6,148.7l31.3,0.2l-0.2-31.3
				l-10.3,10.1l-16.9-6.2l6.2,16.9L117.6,148.7z M152.1,65.3L152,79.7l-16.4,7.6l16.4,7.6l0.1,14.4l22.3-22L152.1,65.3z"/>
		</g>
	</g>
</g>
</svg>
